<mxfile host="app.diagrams.net" modified="2024-01-01T00:00:00.000Z" agent="DrawIO" version="22.0.0" type="device">
  <diagram name="工程项目管理模块" id="project-management-module">
    <mxGraphModel dx="1422" dy="794" grid="1" gridSize="10" guides="1" tooltips="1" connect="1" arrows="1" fold="1" page="1" pageScale="1" pageWidth="1169" pageHeight="827" math="0" shadow="0">
      <root>
        <mxCell id="0" />
        <mxCell id="1" parent="0" />
        
        <!-- ProjectManager 类 -->
        <mxCell id="ProjectManager" value="&lt;b&gt;ProjectManager (工程项目管理)&lt;/b&gt;" style="swimlane;fontStyle=0;childLayout=stackLayout;horizontal=1;startSize=30;horizontalStack=0;resizeParent=1;resizeParentMax=0;resizeLast=0;collapsible=1;marginBottom=0;whiteSpace=wrap;html=1;fillColor=#dae8fc;strokeColor=#6c8ebf;" vertex="1" parent="1">
          <mxGeometry x="60" y="60" width="460" height="280" as="geometry" />
        </mxCell>
        <mxCell id="ProjectManager-fields" value="- projectPath: string&#xa;- taskListPath: string&#xa;- mapDocPath: string&#xa;- projectName: string&#xa;- createdTime: DateTime&#xa;- lastModifiedTime: DateTime" style="text;strokeColor=none;fillColor=none;align=left;verticalAlign=top;spacingLeft=4;spacingRight=4;overflow=hidden;rotatable=0;points=[[0,0.5],[1,0.5]];portConstraint=eastwest;whiteSpace=wrap;html=1;" vertex="1" parent="ProjectManager">
          <mxGeometry y="30" width="460" height="110" as="geometry" />
        </mxCell>
        <mxCell id="ProjectManager-line" value="" style="line;strokeWidth=1;fillColor=none;align=left;verticalAlign=middle;spacingTop=-1;spacingLeft=3;spacingRight=3;rotatable=0;labelPosition=right;points=[];portConstraint=eastwest;strokeColor=inherit;" vertex="1" parent="ProjectManager">
          <mxGeometry y="140" width="460" height="8" as="geometry" />
        </mxCell>
        <mxCell id="ProjectManager-methods" value="+ SaveProjectFile(path: string): bool&#xa;+ OpenProjectFile(path: string): bool&#xa;+ GetProjectInfo(path: string): Dictionary&lt;string, string&gt;&#xa;+ ValidateProject(path: string): bool&#xa;+ CreateNewProject(name: string, path: string): bool&#xa;+ CloseProject(): void" style="text;strokeColor=none;fillColor=none;align=left;verticalAlign=top;spacingLeft=4;spacingRight=4;overflow=hidden;rotatable=0;points=[[0,0.5],[1,0.5]];portConstraint=eastwest;whiteSpace=wrap;html=1;" vertex="1" parent="ProjectManager">
          <mxGeometry y="148" width="460" height="132" as="geometry" />
        </mxCell>
        
        <!-- TaskListManager 类 -->
        <mxCell id="TaskListManager" value="&lt;b&gt;TaskListManager (任务列表管理)&lt;/b&gt;" style="swimlane;fontStyle=0;childLayout=stackLayout;horizontal=1;startSize=30;horizontalStack=0;resizeParent=1;resizeParentMax=0;resizeLast=0;collapsible=1;marginBottom=0;whiteSpace=wrap;html=1;fillColor=#d5e8d4;strokeColor=#82b366;" vertex="1" parent="1">
          <mxGeometry x="580" y="60" width="420" height="150" as="geometry" />
        </mxCell>
        <mxCell id="TaskListManager-fields" value="- csvPath: string&#xa;- taskList: List&lt;GpBean&gt;" style="text;strokeColor=none;fillColor=none;align=left;verticalAlign=top;spacingLeft=4;spacingRight=4;overflow=hidden;rotatable=0;points=[[0,0.5],[1,0.5]];portConstraint=eastwest;whiteSpace=wrap;html=1;" vertex="1" parent="TaskListManager">
          <mxGeometry y="30" width="420" height="50" as="geometry" />
        </mxCell>
        <mxCell id="TaskListManager-line" value="" style="line;strokeWidth=1;fillColor=none;align=left;verticalAlign=middle;spacingTop=-1;spacingLeft=3;spacingRight=3;rotatable=0;labelPosition=right;points=[];portConstraint=eastwest;strokeColor=inherit;" vertex="1" parent="TaskListManager">
          <mxGeometry y="80" width="420" height="8" as="geometry" />
        </mxCell>
        <mxCell id="TaskListManager-methods" value="+ SaveTaskList(csvPath: string): bool&#xa;+ LoadTaskList(csvPath: string): bool&#xa;+ ClearTaskList(): void" style="text;strokeColor=none;fillColor=none;align=left;verticalAlign=top;spacingLeft=4;spacingRight=4;overflow=hidden;rotatable=0;points=[[0,0.5],[1,0.5]];portConstraint=eastwest;whiteSpace=wrap;html=1;" vertex="1" parent="TaskListManager">
          <mxGeometry y="88" width="420" height="62" as="geometry" />
        </mxCell>
        
        <!-- MapDocManager 类 -->
        <mxCell id="MapDocManager" value="&lt;b&gt;MapDocManager (地图文档管理)&lt;/b&gt;" style="swimlane;fontStyle=0;childLayout=stackLayout;horizontal=1;startSize=30;horizontalStack=0;resizeParent=1;resizeParentMax=0;resizeLast=0;collapsible=1;marginBottom=0;whiteSpace=wrap;html=1;fillColor=#d5e8d4;strokeColor=#82b366;" vertex="1" parent="1">
          <mxGeometry x="580" y="250" width="420" height="160" as="geometry" />
        </mxCell>
        <mxCell id="MapDocManager-fields" value="- mxdPath: string&#xa;- mapDocument: IMapDocument" style="text;strokeColor=none;fillColor=none;align=left;verticalAlign=top;spacingLeft=4;spacingRight=4;overflow=hidden;rotatable=0;points=[[0,0.5],[1,0.5]];portConstraint=eastwest;whiteSpace=wrap;html=1;" vertex="1" parent="MapDocManager">
          <mxGeometry y="30" width="420" height="50" as="geometry" />
        </mxCell>
        <mxCell id="MapDocManager-line" value="" style="line;strokeWidth=1;fillColor=none;align=left;verticalAlign=middle;spacingTop=-1;spacingLeft=3;spacingRight=3;rotatable=0;labelPosition=right;points=[];portConstraint=eastwest;strokeColor=inherit;" vertex="1" parent="MapDocManager">
          <mxGeometry y="80" width="420" height="8" as="geometry" />
        </mxCell>
        <mxCell id="MapDocManager-methods" value="+ SaveMapDocument(mxdPath: string): bool&#xa;+ LoadMapDocument(mxdPath: string): bool&#xa;+ IsMapDocumentAvailable(): bool" style="text;strokeColor=none;fillColor=none;align=left;verticalAlign=top;spacingLeft=4;spacingRight=4;overflow=hidden;rotatable=0;points=[[0,0.5],[1,0.5]];portConstraint=eastwest;whiteSpace=wrap;html=1;" vertex="1" parent="MapDocManager">
          <mxGeometry y="88" width="420" height="72" as="geometry" />
        </mxCell>
        
        <!-- ProjectConfigManager 类 -->
        <mxCell id="ProjectConfigManager" value="&lt;b&gt;ProjectConfigManager (工程配置管理)&lt;/b&gt;" style="swimlane;fontStyle=0;childLayout=stackLayout;horizontal=1;startSize=30;horizontalStack=0;resizeParent=1;resizeParentMax=0;resizeLast=0;collapsible=1;marginBottom=0;whiteSpace=wrap;html=1;fillColor=#d5e8d4;strokeColor=#82b366;" vertex="1" parent="1">
          <mxGeometry x="60" y="380" width="460" height="180" as="geometry" />
        </mxCell>
        <mxCell id="ProjectConfigManager-fields" value="- configPath: string&#xa;- themeColors: string[]&#xa;- toolResourcePath: string" style="text;strokeColor=none;fillColor=none;align=left;verticalAlign=top;spacingLeft=4;spacingRight=4;overflow=hidden;rotatable=0;points=[[0,0.5],[1,0.5]];portConstraint=eastwest;whiteSpace=wrap;html=1;" vertex="1" parent="ProjectConfigManager">
          <mxGeometry y="30" width="460" height="60" as="geometry" />
        </mxCell>
        <mxCell id="ProjectConfigManager-line" value="" style="line;strokeWidth=1;fillColor=none;align=left;verticalAlign=middle;spacingTop=-1;spacingLeft=3;spacingRight=3;rotatable=0;labelPosition=right;points=[];portConstraint=eastwest;strokeColor=inherit;" vertex="1" parent="ProjectConfigManager">
          <mxGeometry y="90" width="460" height="8" as="geometry" />
        </mxCell>
        <mxCell id="ProjectConfigManager-methods" value="+ SaveProjectConfig(projectPath: string): bool&#xa;+ LoadProjectConfig(projectPath: string): bool&#xa;+ UpdateToolResourcePath(path: string): void&#xa;+ UpdateThemeColors(colors: string[]): void" style="text;strokeColor=none;fillColor=none;align=left;verticalAlign=top;spacingLeft=4;spacingRight=4;overflow=hidden;rotatable=0;points=[[0,0.5],[1,0.5]];portConstraint=eastwest;whiteSpace=wrap;html=1;" vertex="1" parent="ProjectConfigManager">
          <mxGeometry y="98" width="460" height="82" as="geometry" />
        </mxCell>
        
        <!-- SelectFileFunc 类 -->
        <mxCell id="SelectFileFunc" value="&lt;b&gt;SelectFileFunc (文件选择)&lt;/b&gt;" style="swimlane;fontStyle=0;childLayout=stackLayout;horizontal=1;startSize=30;horizontalStack=0;resizeParent=1;resizeParentMax=0;resizeLast=0;collapsible=1;marginBottom=0;whiteSpace=wrap;html=1;fillColor=#fff2cc;strokeColor=#d6b656;" vertex="1" parent="1">
          <mxGeometry x="580" y="460" width="420" height="160" as="geometry" />
        </mxCell>
        <mxCell id="SelectFileFunc-fields" value="// 文件/文件夹选择工具类" style="text;strokeColor=none;fillColor=none;align=left;verticalAlign=top;spacingLeft=4;spacingRight=4;overflow=hidden;rotatable=0;points=[[0,0.5],[1,0.5]];portConstraint=eastwest;whiteSpace=wrap;html=1;" vertex="1" parent="SelectFileFunc">
          <mxGeometry y="30" width="420" height="30" as="geometry" />
        </mxCell>
        <mxCell id="SelectFileFunc-line" value="" style="line;strokeWidth=1;fillColor=none;align=left;verticalAlign=middle;spacingTop=-1;spacingLeft=3;spacingRight=3;rotatable=0;labelPosition=right;points=[];portConstraint=eastwest;strokeColor=inherit;" vertex="1" parent="SelectFileFunc">
          <mxGeometry y="60" width="420" height="8" as="geometry" />
        </mxCell>
        <mxCell id="SelectFileFunc-methods" value="+ sf_folder(): string&#xa;+ sf_file(filter: string): string&#xa;+ sf_files(filter: string): string[]&#xa;+ sf_saveFile(filter: string): string" style="text;strokeColor=none;fillColor=none;align=left;verticalAlign=top;spacingLeft=4;spacingRight=4;overflow=hidden;rotatable=0;points=[[0,0.5],[1,0.5]];portConstraint=eastwest;whiteSpace=wrap;html=1;" vertex="1" parent="SelectFileFunc">
          <mxGeometry y="68" width="420" height="92" as="geometry" />
        </mxCell>
        
        <!-- globalpara 类 -->
        <mxCell id="globalpara" value="&lt;b&gt;globalpara (全局参数)&lt;/b&gt;" style="swimlane;fontStyle=0;childLayout=stackLayout;horizontal=1;startSize=30;horizontalStack=0;resizeParent=1;resizeParentMax=0;resizeLast=0;collapsible=1;marginBottom=0;whiteSpace=wrap;html=1;fillColor=#fff2cc;strokeColor=#d6b656;" vertex="1" parent="1">
          <mxGeometry x="60" y="600" width="460" height="180" as="geometry" />
        </mxCell>
        <mxCell id="globalpara-fields" value="+ dbpath: string&#xa;+ toolconfigpath: string&#xa;+ defaultGdbPath: string&#xa;+ isArcGisInitialized: bool&#xa;+ GpBeanList: List&lt;GpBean&gt;" style="text;strokeColor=none;fillColor=none;align=left;verticalAlign=top;spacingLeft=4;spacingRight=4;overflow=hidden;rotatable=0;points=[[0,0.5],[1,0.5]];portConstraint=eastwest;whiteSpace=wrap;html=1;" vertex="1" parent="globalpara">
          <mxGeometry y="30" width="460" height="90" as="geometry" />
        </mxCell>
        <mxCell id="globalpara-line" value="" style="line;strokeWidth=1;fillColor=none;align=left;verticalAlign=middle;spacingTop=-1;spacingLeft=3;spacingRight=3;rotatable=0;labelPosition=right;points=[];portConstraint=eastwest;strokeColor=inherit;" vertex="1" parent="globalpara">
          <mxGeometry y="120" width="460" height="8" as="geometry" />
        </mxCell>
        <mxCell id="globalpara-methods" value="// 全局参数静态类" style="text;strokeColor=none;fillColor=none;align=left;verticalAlign=top;spacingLeft=4;spacingRight=4;overflow=hidden;rotatable=0;points=[[0,0.5],[1,0.5]];portConstraint=eastwest;whiteSpace=wrap;html=1;" vertex="1" parent="globalpara">
          <mxGeometry y="128" width="460" height="52" as="geometry" />
        </mxCell>
        
        <!-- 关系箭头 -->
        <mxCell id="rel1" value="" style="endArrow=open;endFill=0;dashed=1;html=1;rounded=0;exitX=1;exitY=0.25;exitDx=0;exitDy=0;entryX=0;entryY=0.25;entryDx=0;entryDy=0;" edge="1" parent="1" source="ProjectManager" target="TaskListManager">
          <mxGeometry width="50" height="50" relative="1" as="geometry">
            <mxPoint x="400" y="400" as="sourcePoint" />
            <mxPoint x="450" y="350" as="targetPoint" />
          </mxGeometry>
        </mxCell>
        <mxCell id="rel1-label" value="uses" style="edgeLabel;html=1;align=center;verticalAlign=middle;resizable=0;points=[];" vertex="1" connectable="0" parent="rel1">
          <mxGeometry x="-0.2" y="-1" relative="1" as="geometry">
            <mxPoint as="offset" />
          </mxGeometry>
        </mxCell>
        
        <mxCell id="rel2" value="" style="endArrow=open;endFill=0;dashed=1;html=1;rounded=0;exitX=1;exitY=0.5;exitDx=0;exitDy=0;entryX=0;entryY=0.5;entryDx=0;entryDy=0;" edge="1" parent="1" source="ProjectManager-methods" target="MapDocManager">
          <mxGeometry width="50" height="50" relative="1" as="geometry">
            <mxPoint x="400" y="400" as="sourcePoint" />
            <mxPoint x="450" y="350" as="targetPoint" />
          </mxGeometry>
        </mxCell>
        <mxCell id="rel2-label" value="uses" style="edgeLabel;html=1;align=center;verticalAlign=middle;resizable=0;points=[];" vertex="1" connectable="0" parent="rel2">
          <mxGeometry x="-0.2" y="-1" relative="1" as="geometry">
            <mxPoint as="offset" />
          </mxGeometry>
        </mxCell>
        
        <mxCell id="rel3" value="" style="endArrow=open;endFill=0;dashed=1;html=1;rounded=0;exitX=0.5;exitY=1;exitDx=0;exitDy=0;entryX=0.5;entryY=0;entryDx=0;entryDy=0;" edge="1" parent="1" source="ProjectManager" target="ProjectConfigManager">
          <mxGeometry width="50" height="50" relative="1" as="geometry">
            <mxPoint x="300" y="450" as="sourcePoint" />
            <mxPoint x="350" y="400" as="targetPoint" />
          </mxGeometry>
        </mxCell>
        <mxCell id="rel3-label" value="uses" style="edgeLabel;html=1;align=center;verticalAlign=middle;resizable=0;points=[];" vertex="1" connectable="0" parent="rel3">
          <mxGeometry x="-0.2" y="-1" relative="1" as="geometry">
            <mxPoint as="offset" />
          </mxGeometry>
        </mxCell>
        
        <mxCell id="rel4" value="" style="endArrow=open;endFill=0;dashed=1;html=1;rounded=0;exitX=1;exitY=0.5;exitDx=0;exitDy=0;entryX=0;entryY=0.5;entryDx=0;entryDy=0;" edge="1" parent="1" source="ProjectConfigManager-methods" target="SelectFileFunc">
          <mxGeometry width="50" height="50" relative="1" as="geometry">
            <mxPoint x="300" y="550" as="sourcePoint" />
            <mxPoint x="350" y="500" as="targetPoint" />
          </mxGeometry>
        </mxCell>
        <mxCell id="rel4-label" value="uses" style="edgeLabel;html=1;align=center;verticalAlign=middle;resizable=0;points=[];" vertex="1" connectable="0" parent="rel4">
          <mxGeometry x="-0.2" y="-1" relative="1" as="geometry">
            <mxPoint as="offset" />
          </mxGeometry>
        </mxCell>
        
        <mxCell id="rel5" value="" style="endArrow=open;endFill=0;dashed=1;html=1;rounded=0;exitX=0.5;exitY=1;exitDx=0;exitDy=0;entryX=0.5;entryY=0;entryDx=0;entryDy=0;" edge="1" parent="1" source="ProjectConfigManager" target="globalpara">
          <mxGeometry width="50" height="50" relative="1" as="geometry">
            <mxPoint x="300" y="650" as="sourcePoint" />
            <mxPoint x="350" y="600" as="targetPoint" />
          </mxGeometry>
        </mxCell>
        <mxCell id="rel5-label" value="uses" style="edgeLabel;html=1;align=center;verticalAlign=middle;resizable=0;points=[];" vertex="1" connectable="0" parent="rel5">
          <mxGeometry x="-0.2" y="-1" relative="1" as="geometry">
            <mxPoint as="offset" />
          </mxGeometry>
        </mxCell>
        
        <mxCell id="rel6" value="" style="endArrow=open;endFill=0;dashed=1;html=1;rounded=0;exitX=0.5;exitY=1;exitDx=0;exitDy=0;entryX=1;entryY=0.25;entryDx=0;entryDy=0;" edge="1" parent="1" source="TaskListManager" target="globalpara">
          <mxGeometry width="50" height="50" relative="1" as="geometry">
            <mxPoint x="700" y="500" as="sourcePoint" />
            <mxPoint x="750" y="450" as="targetPoint" />
            <Array as="points">
              <mxPoint x="790" y="645" />
            </Array>
          </mxGeometry>
        </mxCell>
        <mxCell id="rel6-label" value="uses" style="edgeLabel;html=1;align=center;verticalAlign=middle;resizable=0;points=[];" vertex="1" connectable="0" parent="rel6">
          <mxGeometry x="-0.2" y="-1" relative="1" as="geometry">
            <mxPoint as="offset" />
          </mxGeometry>
        </mxCell>
        
      </root>
    </mxGraphModel>
  </diagram>
</mxfile>
